<?xml version="1.0" encoding="utf-8"?>
<!-- Generator: Adobe Illustrator 26.0.1, SVG Export Plug-In . SVG Version: 6.00 Build 0)  -->
<svg version="1.1" width="300" height="100" id="Layer_1" xmlns="http://www.w3.org/2000/svg" xmlns:xlink="http://www.w3.org/1999/xlink" x="0px" y="0px"
	 viewBox="0 0 150 43.11" style="enable-background:new 0 0 150 43.11;" xml:space="preserve">
<style type="text/css">
	.st0{fill:#25B99A;}
</style>
<g id="Logo_Fill">
	<g id="J_00000105402043956256524740000004979119351460932504_">
		<path class="st0" d="M12,37.55c-3.61,0-7.28-1.79-9.71-4.77l-0.25-0.31l4.21-5.12l0.38,0.35c1.04,0.96,2.11,1.96,3.41,2.47
			c1.12,0.44,2.68,0.48,3.65-0.41c1.04-0.97,1.12-2.62,1.11-4.24l-0.09-11.54l-9.51-0.09V7.66l17.46,0.06l0,0.49
			c0.01,2.64,0.01,5.29,0.02,7.95c0,2.65,0.01,5.31,0.02,7.95c0.01,2.22,0.02,4.74-0.87,7c-1.43,3.62-5.13,6.2-9.22,6.43
			C12.39,37.54,12.2,37.55,12,37.55z M3.3,32.47c2.37,2.71,5.87,4.27,9.23,4.08c3.65-0.2,7.09-2.59,8.36-5.81
			c0.82-2.09,0.81-4.51,0.8-6.64c-0.01-2.64-0.01-5.29-0.02-7.95c0-2.49,0-4.98-0.01-7.46L6.16,8.65v4.27l9.5,0.09l0.1,12.5
			c0.01,1.75-0.08,3.73-1.42,4.97c-1.13,1.04-2.96,1.28-4.67,0.61c-1.3-0.51-2.38-1.43-3.33-2.31L3.3,32.47z"/>
	</g>
	<g id="u_00000158736938918900758540000003652899246162609321_">
		<path class="st0" d="M36.3,37.08c-0.28,0-0.56-0.01-0.84-0.04c-0.59-0.05-1.17-0.16-1.75-0.32l0,0c-2.47-0.7-4.51-2.32-5.59-4.44
			c-1.18-2.33-1.16-5.01-1.15-7.37c0-1.83,0.01-3.7,0.03-5.5c0.01-0.91,0.01-1.82,0.02-2.73c0-0.11,0-0.3,0.01-0.53
			c0.01-0.45,0.02-1.07,0.01-1.43l0-0.49h0.49c0.22,0,0.67-0.01,1.1-0.02c0.41-0.01,0.8-0.01,0.98-0.01l4.71,0l0,11.89
			c0,0.85,0,1.81,0.36,2.6c0.48,1.04,1.64,1.82,3.03,2.04c1.59,0.24,3.6-0.36,4.39-1.96c0.45-0.91,0.45-2.04,0.44-3.04l-0.02-11.5
			L43,14.19l6.82,0v22.63h-6.89l0.02-1.99C40.95,36.28,38.61,37.08,36.3,37.08z M28.02,15.19c0,0.32-0.01,0.68-0.01,0.97
			c0,0.23-0.01,0.42-0.01,0.52c-0.01,0.91-0.01,1.82-0.02,2.73c-0.01,1.8-0.03,3.67-0.03,5.5c-0.01,2.26-0.03,4.81,1.05,6.93
			c0.95,1.88,2.77,3.32,4.98,3.94l0,0c0.51,0.15,1.04,0.24,1.57,0.29c2.63,0.23,5.4-0.73,7.59-2.63l0.82-0.71l-0.03,3.11h4.92V15.17
			l-5.35,0l0.02,10.54c0,1.1,0,2.36-0.54,3.47c-0.99,2.03-3.48,2.79-5.42,2.5c-1.72-0.26-3.17-1.25-3.78-2.6
			c-0.44-0.98-0.44-2.05-0.44-3l0-10.91l-3.73,0c-0.18,0-0.56,0.01-0.96,0.01C28.43,15.18,28.21,15.19,28.02,15.19z"/>
	</g>
	<g id="u">
		<path class="st0" d="M63.63,37.08c-0.28,0-0.56-0.01-0.84-0.04c-0.59-0.05-1.17-0.16-1.75-0.32l0,0c-2.47-0.7-4.51-2.32-5.59-4.44
			c-1.18-2.32-1.16-5.01-1.15-7.37c0-1.83,0.01-3.7,0.03-5.5c0.01-0.91,0.01-1.82,0.02-2.73c0-0.11,0-0.3,0.01-0.53
			c0.01-0.45,0.02-1.07,0.01-1.43l0-0.49h0.49c0.22,0,0.67-0.01,1.1-0.02c0.41-0.01,0.8-0.01,0.98-0.01l4.71,0l0,11.89
			c0,0.85,0,1.81,0.36,2.6c0.48,1.04,1.64,1.82,3.03,2.04c1.59,0.24,3.6-0.36,4.39-1.96c0.45-0.91,0.45-2.04,0.44-3.04l-0.02-11.52
			l7.31,0v22.63h-6.89l0.02-1.99C68.29,36.28,65.94,37.08,63.63,37.08z M55.35,15.19c0,0.32-0.01,0.68-0.01,0.97
			c0,0.23-0.01,0.42-0.01,0.52c-0.01,0.91-0.01,1.82-0.02,2.73c-0.01,1.8-0.03,3.67-0.03,5.5c-0.01,2.26-0.03,4.81,1.05,6.93
			c0.95,1.88,2.77,3.32,4.98,3.94l0,0c0.51,0.15,1.04,0.24,1.57,0.29c2.63,0.23,5.4-0.73,7.59-2.63l0.82-0.71l-0.03,3.11h4.92V15.17
			l-5.35,0l0.02,10.54c0,1.1,0,2.36-0.54,3.47c-0.99,2.03-3.48,2.79-5.42,2.5c-1.72-0.26-3.17-1.25-3.78-2.6
			c-0.44-0.98-0.44-2.05-0.44-3l0-10.91l-3.73,0c-0.18,0-0.56,0.01-0.96,0.01C55.76,15.18,55.54,15.19,55.35,15.19z"/>
	</g>
	<g id="d">
		<path class="st0" d="M90.97,36.94c-6.05,0-10.98-5.2-10.98-11.59s4.93-11.59,10.98-11.59c2.24,0,4.42,0.72,6.24,2.06l0-9.76h7.24
			v30.61h-6.79l-0.01-2.12C95.74,36.09,93.4,36.94,90.97,36.94z M90.97,14.73c-5.51,0-10,4.76-10,10.61s4.49,10.61,10,10.61
			c2.54,0,4.96-1.02,6.83-2.87l0.83-0.82l0.01,3.41h4.84V7.02h-5.28l0,10.9l-0.82-0.72C95.59,15.61,93.31,14.73,90.97,14.73z
			 M92.4,31.91c-3.44,0-6.24-2.96-6.24-6.6s2.8-6.6,6.24-6.6c3.44,0,6.24,2.96,6.24,6.6S95.84,31.91,92.4,31.91z M92.4,19.7
			c-2.9,0-5.26,2.52-5.26,5.62s2.36,5.62,5.26,5.62c2.9,0,5.26-2.52,5.26-5.62S95.3,19.7,92.4,19.7z"/>
	</g>
	<g>
		<ellipse id="Dot_00000179648091047731568780000017738400714228339366_" class="st0" cx="121.8" cy="5.3" rx="3.76" ry="3.61"/>
		<path class="st0" d="M130.61,27c0.35,0.15,0.69,0.26,1,0.42c2.44,1.33,5.08,1.6,7.8,1.4c0.62-0.04,1.27-0.18,1.82-0.44
			c0.6-0.29,1.04-0.89,0.76-1.57c-0.2-0.46-0.66-0.96-1.12-1.14c-0.87-0.35-1.82-0.51-2.75-0.7c-1.41-0.28-2.85-0.43-4.24-0.77
			c-1.93-0.47-3.63-1.41-4.38-3.38c-1.1-2.9-0.04-6.14,3.02-7.8c2.83-1.54,5.9-1.62,8.95-1.31c1.99,0.21,4.01,0.61,5.78,1.77
			c-0.63,1.35-1.25,2.68-1.94,4.15c-0.29-0.07-0.67-0.09-0.98-0.24c-1.87-0.84-3.83-1.28-5.86-1.18c-0.84,0.04-1.71,0.3-2.46,0.68
			c-0.45,0.23-0.94,0.89-0.94,1.34c0,0.47,0.51,1.17,0.95,1.34c1.05,0.41,2.2,0.58,3.32,0.81c2.07,0.42,4.19,0.6,6.07,1.72
			c1.63,0.97,2.42,2.38,2.56,4.27c0.24,3.32-2.1,5.38-4.45,6.29c-2.35,0.91-4.79,1.21-7.24,0.94c-2.47-0.27-4.93-0.7-7.16-1.97
			c-0.45-0.26-0.48-0.43-0.26-0.86C129.45,29.56,130,28.32,130.61,27z"/>
		<path class="st0" d="M112.03,40.38c0.38-1,0.66-1.73,0.94-2.48c0.26-0.7,0.52-1.41,0.79-2.13c1.2,0.56,2.28,1.03,3.44,0.61
			c1.42-0.51,1.79-1.75,1.8-3.1c0.03-5.22,0.01-10.45,0.01-15.67c0-1.84,0-3.67,0-5.58c2.02,0,3.98,0,5.98,0
			c0.02,0.12,0.05,0.23,0.05,0.34c-0.02,7.5,0.01,15-0.09,22.5c-0.03,2.52-1.8,4.93-4.3,5.87c-1.68,0.63-3.39,0.8-5.11,0.6
			C114.38,41.2,113.26,40.73,112.03,40.38z"/>
		<circle id="Dot" class="st0" cx="110.17" cy="29.72" r="3.76"/>
	</g>
</g>
</svg>
